<svg width="31" height="31" viewBox="0 0 31 31" fill="none" xmlns="http://www.w3.org/2000/svg">
<path fill-rule="evenodd" clip-rule="evenodd" d="M30.2842 15.3618C30.2842 17.4321 29.8936 19.3804 29.1123 21.2065C28.3311 23.0327 27.2617 24.6245 25.9043 25.9819C24.5469 27.3394 22.9551 28.4087 21.1289 29.1899C19.3027 29.9712 17.3545 30.3618 15.2842 30.3618C13.2139 30.3618 11.2656 29.9712 9.43945 29.1899C7.61327 28.4087 6.02149 27.3394 4.66406 25.9819C3.30663 24.6245 2.23731 23.0327 1.45605 21.2065C0.674801 19.3804 0.28418 17.4321 0.28418 15.3618C0.28418 13.2915 0.674801 11.3433 1.45605 9.51709C2.23731 7.69091 3.30663 6.09913 4.66406 4.7417C6.02149 3.38427 7.61327 2.31495 9.43945 1.53369C11.2656 0.752437 13.2139 0.361816 15.2842 0.361816C17.3545 0.361816 19.3027 0.752437 21.1289 1.53369C22.9551 2.31495 24.5469 3.38427 25.9043 4.7417C27.2617 6.09913 28.3311 7.69091 29.1123 9.51709C29.8936 11.3433 30.2842 13.2915 30.2842 15.3618ZM2.12988 15.3618C2.12988 17.1782 2.47656 18.8823 3.16992 20.4741C3.86329 22.0659 4.80566 23.4526 5.99707 24.6343C7.18848 25.8159 8.58007 26.7534 10.1719 27.4468C11.7637 28.1401 13.4678 28.4868 15.2842 28.4868C17.1006 28.4868 18.8047 28.1401 20.3965 27.4468C21.9883 26.7534 23.375 25.8159 24.5566 24.6343C25.7383 23.4526 26.6758 22.0659 27.3691 20.4741C28.0625 18.8823 28.4092 17.1782 28.4092 15.3618C28.4092 13.5454 28.0625 11.8413 27.3691 10.2495C26.6758 8.65771 25.7383 7.271 24.5566 6.08936C23.375 4.90771 21.9883 3.97022 20.3965 3.27686C18.8047 2.58349 17.1006 2.23682 15.2842 2.23682C13.4678 2.23682 11.7637 2.58349 10.1719 3.27686C8.58007 3.97022 7.18848 4.90771 5.99707 6.08936C4.80566 7.271 3.86329 8.65771 3.16992 10.2495C2.47656 11.8413 2.12988 13.5454 2.12988 15.3618ZM21.2314 16.6216C21.2314 16.3677 21.1338 16.1431 20.9385 15.9478C20.7627 15.772 20.543 15.6841 20.2793 15.6841C20.0156 15.6841 19.7959 15.772 19.6201 15.9478L16.2217 19.3462V8.79932C16.2217 8.52588 16.1338 8.30127 15.958 8.12549C15.7822 7.94971 15.5576 7.86182 15.2842 7.86182C15.0303 7.86182 14.8105 7.94971 14.625 8.12549C14.4395 8.30127 14.3467 8.52588 14.3467 8.79932L14.3467 19.4048L10.9189 15.9478C10.7236 15.772 10.499 15.6841 10.2451 15.6841C9.99121 15.6841 9.7666 15.772 9.57129 15.9478C9.49316 16.0454 9.42969 16.1528 9.38086 16.27C9.33203 16.3872 9.30762 16.5044 9.30762 16.6216C9.30762 16.7388 9.33203 16.856 9.38086 16.9731C9.42969 17.0903 9.49316 17.1978 9.57129 17.2954L15.2549 22.8325L20.9385 17.2954C21.1338 17.1001 21.2314 16.8755 21.2314 16.6216Z" fill="white"/>
</svg>
