<svg width="29" height="17" viewBox="0 0 29 17" fill="none" xmlns="http://www.w3.org/2000/svg">
<g clip-path="url(#clip0)">
<path d="M28.9994 1.61598C28.7473 1.93918 28.5581 2.19773 28.306 2.39165C23.7668 7.11028 19.1647 11.7643 14.5625 16.5475C13.9951 17.1293 13.6799 17.0646 13.1755 16.5475C11.2842 14.6084 9.45595 12.6046 7.50161 10.73C6.74508 9.95438 7.18639 9.63119 7.69074 9.11408C8.25813 8.53233 8.69943 8.07986 9.45595 8.92016C10.5907 10.2129 11.8516 11.3118 12.9864 12.6046C13.6799 13.3802 14.1212 13.3802 14.8147 12.6046C18.6603 8.59697 22.506 4.654 26.3516 0.711039C26.6668 0.387845 26.919 -0.258543 27.4864 0.12929C27.9907 0.517123 28.432 1.03423 28.9994 1.61598Z" fill="#319EDF"/>
<path d="M21.9387 1.48675C21.6235 1.87458 21.4343 2.13314 21.3082 2.32706C19.0387 4.65405 16.7691 6.91641 14.5626 9.30805C13.743 10.213 13.4278 9.37268 12.9865 8.98485C12.4822 8.53238 12.1039 8.14455 12.7974 7.43352C15.0669 5.17116 17.2735 2.90881 19.48 0.646448C19.7322 0.387893 19.9213 -0.0645788 20.3626 0.258615C20.8669 0.51717 21.3713 0.969642 21.9387 1.48675Z" fill="#2B9BDE"/>
<path d="M8.57362 15.4486C8.00623 15.9011 7.50188 16.4182 6.99754 16.806C6.49319 17.1939 6.24101 16.6121 5.98884 16.3536C4.09754 14.479 2.33232 12.5399 0.377971 10.6653C-0.504638 9.82504 0.125797 9.4372 0.630145 8.85546C1.19754 8.20907 1.5758 8.07979 2.20623 8.79082C4.03449 10.73 5.9258 12.6045 7.75406 14.5437C8.06927 14.8022 8.25841 15.0608 8.57362 15.4486Z" fill="#2C9CDE"/>
</g>
<defs>
<clipPath id="clip0">
<rect width="29" height="17" fill="white"/>
</clipPath>
</defs>
</svg>
