<svg width="204" height="55" viewBox="0 0 204 55" fill="none" xmlns="http://www.w3.org/2000/svg">
<mask id="mask0" mask-type="alpha" maskUnits="userSpaceOnUse" x="0" y="0" width="204" height="55">
<rect width="204" height="55" fill="white"/>
</mask>
<g mask="url(#mask0)">
<path d="M82.6641 20.4V23H71.8241V9H82.4041V11.6H75.0441V14.64H81.5441V17.16H75.0441V20.4H82.6641ZM97.982 23L97.962 14.6L93.842 21.52H92.382L88.282 14.78V23H85.242V9H87.922L93.162 17.7L98.322 9H100.982L101.022 23H97.982ZM116.788 23.24C115.334 23.24 114.021 22.9267 112.848 22.3C111.688 21.6733 110.774 20.8133 110.108 19.72C109.454 18.6133 109.128 17.3733 109.128 16C109.128 14.6267 109.454 13.3933 110.108 12.3C110.774 11.1933 111.688 10.3267 112.848 9.7C114.021 9.07333 115.334 8.76 116.788 8.76C118.241 8.76 119.548 9.07333 120.708 9.7C121.868 10.3267 122.781 11.1933 123.448 12.3C124.114 13.3933 124.448 14.6267 124.448 16C124.448 17.3733 124.114 18.6133 123.448 19.72C122.781 20.8133 121.868 21.6733 120.708 22.3C119.548 22.9267 118.241 23.24 116.788 23.24ZM116.788 20.48C117.614 20.48 118.361 20.2933 119.028 19.92C119.694 19.5333 120.214 19 120.588 18.32C120.974 17.64 121.168 16.8667 121.168 16C121.168 15.1333 120.974 14.36 120.588 13.68C120.214 13 119.694 12.4733 119.028 12.1C118.361 11.7133 117.614 11.52 116.788 11.52C115.961 11.52 115.214 11.7133 114.548 12.1C113.881 12.4733 113.354 13 112.968 13.68C112.594 14.36 112.408 15.1333 112.408 16C112.408 16.8667 112.594 17.64 112.968 18.32C113.354 19 113.881 19.5333 114.548 19.92C115.214 20.2933 115.961 20.48 116.788 20.48ZM135.803 23L133.103 19.1H132.943H130.123V23H126.883V9H132.943C134.183 9 135.256 9.20667 136.163 9.62C137.083 10.0333 137.789 10.62 138.283 11.38C138.776 12.14 139.023 13.04 139.023 14.08C139.023 15.12 138.769 16.02 138.263 16.78C137.769 17.5267 137.063 18.1 136.143 18.5L139.283 23H135.803ZM135.743 14.08C135.743 13.2933 135.489 12.6933 134.983 12.28C134.476 11.8533 133.736 11.64 132.763 11.64H130.123V16.52H132.763C133.736 16.52 134.476 16.3067 134.983 15.88C135.489 15.4533 135.743 14.8533 135.743 14.08ZM144.294 11.64H139.814V9H152.014V11.64H147.534V23H144.294V11.64ZM162.275 20H155.775L154.535 23H151.215L157.455 9H160.655L166.915 23H163.515L162.275 20ZM161.255 17.54L159.035 12.18L156.815 17.54H161.255ZM173.467 17.5L171.587 19.46V23H168.367V9H171.587V15.54L177.787 9H181.387L175.587 15.24L181.727 23H177.947L173.467 17.5ZM183.172 9H186.412V23H183.172V9ZM195.954 23.24C193.954 23.24 192.394 22.6867 191.274 21.58C190.168 20.4733 189.614 18.8933 189.614 16.84V9H192.854V16.72C192.854 19.2267 193.894 20.48 195.974 20.48C196.988 20.48 197.761 20.18 198.294 19.58C198.828 18.9667 199.094 18.0133 199.094 16.72V9H202.294V16.84C202.294 18.8933 201.734 20.4733 200.614 21.58C199.508 22.6867 197.954 23.24 195.954 23.24Z" fill="#455076"/>
<path d="M82.6641 20.4H82.7641V20.3H82.6641V20.4ZM82.6641 23V23.1H82.7641V23H82.6641ZM71.8241 23H71.7241V23.1H71.8241V23ZM71.8241 9V8.9H71.7241V9H71.8241ZM82.4041 9H82.5041V8.9H82.4041V9ZM82.4041 11.6V11.7H82.5041V11.6H82.4041ZM75.0441 11.6V11.5H74.9441V11.6H75.0441ZM75.0441 14.64H74.9441V14.74H75.0441V14.64ZM81.5441 14.64H81.6441V14.54H81.5441V14.64ZM81.5441 17.16V17.26H81.6441V17.16H81.5441ZM75.0441 17.16V17.06H74.9441V17.16H75.0441ZM75.0441 20.4H74.9441V20.5H75.0441V20.4ZM82.5641 20.4V23H82.7641V20.4H82.5641ZM82.6641 22.9H71.8241V23.1H82.6641V22.9ZM71.9241 23V9H71.7241V23H71.9241ZM71.8241 9.1H82.4041V8.9H71.8241V9.1ZM82.3041 9V11.6H82.5041V9H82.3041ZM82.4041 11.5H75.0441V11.7H82.4041V11.5ZM74.9441 11.6V14.64H75.1441V11.6H74.9441ZM75.0441 14.74H81.5441V14.54H75.0441V14.74ZM81.4441 14.64V17.16H81.6441V14.64H81.4441ZM81.5441 17.06H75.0441V17.26H81.5441V17.06ZM74.9441 17.16V20.4H75.1441V17.16H74.9441ZM75.0441 20.5H82.6641V20.3H75.0441V20.5ZM97.982 23L97.882 23.0002L97.8823 23.1H97.982V23ZM97.962 14.6L98.062 14.5998L98.0612 14.238L97.8761 14.5488L97.962 14.6ZM93.842 21.52V21.62H93.8989L93.928 21.5712L93.842 21.52ZM92.382 21.52L92.2966 21.572L92.3258 21.62H92.382V21.52ZM88.282 14.78L88.3675 14.728L88.182 14.4232V14.78H88.282ZM88.282 23V23.1H88.382V23H88.282ZM85.242 23H85.142V23.1H85.242V23ZM85.242 9V8.9H85.142V9H85.242ZM87.922 9L88.0077 8.9484L87.9785 8.9H87.922V9ZM93.162 17.7L93.0764 17.7516L93.1627 17.8949L93.248 17.751L93.162 17.7ZM98.322 9V8.9H98.2651L98.236 8.94899L98.322 9ZM100.982 9L101.082 8.99971L101.082 8.9H100.982V9ZM101.022 23V23.1H101.122L101.122 22.9997L101.022 23ZM98.082 22.9998L98.062 14.5998L97.862 14.6002L97.882 23.0002L98.082 22.9998ZM97.8761 14.5488L93.7561 21.4688L93.928 21.5712L98.048 14.6512L97.8761 14.5488ZM93.842 21.42H92.382V21.62H93.842V21.42ZM92.4675 21.468L88.3675 14.728L88.1966 14.832L92.2966 21.572L92.4675 21.468ZM88.182 14.78V23H88.382V14.78H88.182ZM88.282 22.9H85.242V23.1H88.282V22.9ZM85.342 23V9H85.142V23H85.342ZM85.242 9.1H87.922V8.9H85.242V9.1ZM87.8364 9.05159L93.0764 17.7516L93.2477 17.6484L88.0077 8.9484L87.8364 9.05159ZM93.248 17.751L98.408 9.05101L98.236 8.94899L93.076 17.649L93.248 17.751ZM98.322 9.1H100.982V8.9H98.322V9.1ZM100.882 9.00028L100.922 23.0003L101.122 22.9997L101.082 8.99971L100.882 9.00028ZM101.022 22.9H97.982V23.1H101.022V22.9ZM112.848 22.3L112.8 22.388L112.801 22.3882L112.848 22.3ZM110.108 19.72L110.022 19.7708L110.022 19.7721L110.108 19.72ZM110.108 12.3L110.022 12.2484L110.022 12.2487L110.108 12.3ZM112.848 9.7L112.801 9.61179L112.8 9.61202L112.848 9.7ZM123.448 12.3L123.362 12.3516L123.362 12.3521L123.448 12.3ZM123.448 19.72L123.533 19.7721L123.533 19.7716L123.448 19.72ZM120.708 22.3L120.755 22.388L120.708 22.3ZM119.028 19.92L119.077 20.0073L119.078 20.0065L119.028 19.92ZM120.588 18.32L120.501 18.2706L120.5 18.2719L120.588 18.32ZM120.588 13.68L120.5 13.7281L120.501 13.7294L120.588 13.68ZM119.028 12.1L118.977 12.1865L118.979 12.1873L119.028 12.1ZM114.548 12.1L114.597 12.1873L114.598 12.1865L114.548 12.1ZM112.968 13.68L112.881 13.6306L112.88 13.6319L112.968 13.68ZM112.968 18.32L112.88 18.3681L112.881 18.3694L112.968 18.32ZM114.548 19.92L114.497 20.0065L114.499 20.0073L114.548 19.92ZM116.788 23.14C115.349 23.14 114.052 22.83 112.895 22.2118L112.801 22.3882C113.99 23.0233 115.319 23.34 116.788 23.34V23.14ZM112.895 22.212C111.75 21.5935 110.85 20.7457 110.193 19.6679L110.022 19.7721C110.698 20.881 111.625 21.7532 112.8 22.388L112.895 22.212ZM110.194 19.6692C109.55 18.579 109.228 17.3567 109.228 16H109.028C109.028 17.3899 109.358 18.6477 110.022 19.7708L110.194 19.6692ZM109.228 16C109.228 14.6433 109.55 13.4279 110.193 12.3513L110.022 12.2487C109.358 13.3588 109.028 14.6101 109.028 16H109.228ZM110.193 12.3516C110.851 11.2606 111.751 10.4063 112.895 9.78798L112.8 9.61202C111.625 10.247 110.698 11.1261 110.022 12.2484L110.193 12.3516ZM112.895 9.78821C114.052 9.16998 115.349 8.86 116.788 8.86V8.66C115.319 8.66 113.99 8.97668 112.801 9.61179L112.895 9.78821ZM116.788 8.86C118.226 8.86 119.516 9.16999 120.66 9.78798L120.755 9.61202C119.579 8.97668 118.256 8.66 116.788 8.66V8.86ZM120.66 9.78798C121.805 10.4063 122.705 11.2606 123.362 12.3516L123.533 12.2484C122.857 11.1261 121.931 10.247 120.755 9.61202L120.66 9.78798ZM123.362 12.3521C124.019 13.4286 124.348 14.6437 124.348 16H124.548C124.548 14.6097 124.21 13.3581 123.533 12.2479L123.362 12.3521ZM124.348 16C124.348 17.3563 124.019 18.5783 123.362 19.6684L123.533 19.7716C124.21 18.6484 124.548 17.3903 124.548 16H124.348ZM123.362 19.6679C122.705 20.7457 121.805 21.5935 120.66 22.212L120.755 22.388C121.93 21.7532 122.857 20.881 123.533 19.7721L123.362 19.6679ZM120.66 22.212C119.516 22.83 118.226 23.14 116.788 23.14V23.34C118.256 23.34 119.579 23.0233 120.755 22.388L120.66 22.212ZM116.788 20.58C117.63 20.58 118.394 20.3896 119.077 20.0073L118.979 19.8327C118.328 20.197 117.599 20.38 116.788 20.38V20.58ZM119.078 20.0065C119.76 19.6106 120.293 19.064 120.675 18.3681L120.5 18.2719C120.135 18.936 119.628 19.456 118.977 19.8335L119.078 20.0065ZM120.675 18.3694C121.071 17.6728 121.268 16.8821 121.268 16H121.068C121.068 16.8512 120.878 17.6072 120.501 18.2706L120.675 18.3694ZM121.268 16C121.268 15.1179 121.071 14.3272 120.675 13.6306L120.501 13.7294C120.878 14.3928 121.068 15.1487 121.068 16H121.268ZM120.675 13.6319C120.293 12.9357 119.76 12.3954 119.077 12.0127L118.979 12.1873C119.629 12.5513 120.136 13.0643 120.5 13.7281L120.675 13.6319ZM119.078 12.0135C118.395 11.6173 117.631 11.42 116.788 11.42V11.62C117.598 11.62 118.327 11.8093 118.977 12.1865L119.078 12.0135ZM116.788 11.42C115.945 11.42 115.181 11.6173 114.497 12.0135L114.598 12.1865C115.248 11.8093 115.977 11.62 116.788 11.62V11.42ZM114.499 12.0127C113.816 12.3952 113.276 12.9351 112.881 13.6306L113.055 13.7294C113.432 13.0649 113.946 12.5515 114.597 12.1873L114.499 12.0127ZM112.88 13.6319C112.498 14.3283 112.308 15.1185 112.308 16H112.508C112.508 15.1481 112.691 14.3917 113.055 13.7281L112.88 13.6319ZM112.308 16C112.308 16.8815 112.498 17.6717 112.88 18.3681L113.055 18.2719C112.691 17.6083 112.508 16.8518 112.508 16H112.308ZM112.881 18.3694C113.276 19.0646 113.815 19.6108 114.497 20.0065L114.598 19.8335C113.947 19.4559 113.433 18.9354 113.055 18.2706L112.881 18.3694ZM114.499 20.0073C115.182 20.3896 115.945 20.58 116.788 20.58V20.38C115.977 20.38 115.247 20.197 114.597 19.8327L114.499 20.0073ZM135.803 23L135.72 23.0569L135.75 23.1H135.803V23ZM133.103 19.1L133.185 19.0431L133.155 19H133.103V19.1ZM130.123 19.1V19H130.023V19.1H130.123ZM130.123 23V23.1H130.223V23H130.123ZM126.883 23H126.783V23.1H126.883V23ZM126.883 9V8.9H126.783V9H126.883ZM136.163 9.62L136.121 9.71099L136.122 9.71122L136.163 9.62ZM138.263 16.78L138.179 16.7245L138.179 16.7249L138.263 16.78ZM136.143 18.5L136.103 18.4083L135.991 18.457L136.061 18.5572L136.143 18.5ZM139.283 23V23.1H139.474L139.365 22.9428L139.283 23ZM134.983 12.28L134.918 12.3565L134.919 12.3575L134.983 12.28ZM130.123 11.64V11.54H130.023V11.64H130.123ZM130.123 16.52H130.023V16.62H130.123V16.52ZM134.983 15.88L135.047 15.9565V15.9565L134.983 15.88ZM135.885 22.9431L133.185 19.0431L133.02 19.1569L135.72 23.0569L135.885 22.9431ZM133.103 19H132.943V19.2H133.103V19ZM132.943 19H130.123V19.2H132.943V19ZM130.023 19.1V23H130.223V19.1H130.023ZM130.123 22.9H126.883V23.1H130.123V22.9ZM126.983 23V9H126.783V23H126.983ZM126.883 9.1H132.943V8.9H126.883V9.1ZM132.943 9.1C134.172 9.1 135.23 9.30486 136.121 9.71099L136.204 9.52901C135.282 9.10847 134.194 8.9 132.943 8.9V9.1ZM136.122 9.71122C137.026 10.1176 137.717 10.6924 138.199 11.4344L138.367 11.3256C137.862 10.5476 137.139 9.94907 136.204 9.52878L136.122 9.71122ZM138.199 11.4344C138.68 12.1759 138.923 13.0564 138.923 14.08H139.123C139.123 13.0236 138.872 12.1041 138.367 11.3256L138.199 11.4344ZM138.923 14.08C138.923 15.1031 138.674 15.9832 138.179 16.7245L138.346 16.8355C138.865 16.0568 139.123 15.1369 139.123 14.08H138.923ZM138.179 16.7249C137.698 17.4535 137.007 18.015 136.103 18.4083L136.183 18.5917C137.118 18.185 137.841 17.5999 138.346 16.8351L138.179 16.7249ZM136.061 18.5572L139.201 23.0572L139.365 22.9428L136.225 18.4428L136.061 18.5572ZM139.283 22.9H135.803V23.1H139.283V22.9ZM135.843 14.08C135.843 13.27 135.581 12.6387 135.046 12.2025L134.919 12.3575C135.398 12.7479 135.643 13.3166 135.643 14.08H135.843ZM135.047 12.2035C134.516 11.7559 133.749 11.54 132.763 11.54V11.74C133.723 11.74 134.436 11.9507 134.918 12.3565L135.047 12.2035ZM132.763 11.54H130.123V11.74H132.763V11.54ZM130.023 11.64V16.52H130.223V11.64H130.023ZM130.123 16.62H132.763V16.42H130.123V16.62ZM132.763 16.62C133.749 16.62 134.516 16.4041 135.047 15.9565L134.918 15.8035C134.436 16.2093 133.723 16.42 132.763 16.42V16.62ZM135.047 15.9565C135.58 15.5076 135.843 14.8773 135.843 14.08H135.643C135.643 14.8293 135.398 15.3991 134.918 15.8035L135.047 15.9565ZM144.294 11.64H144.394V11.54H144.294V11.64ZM139.814 11.64H139.714V11.74H139.814V11.64ZM139.814 9V8.9H139.714V9H139.814ZM152.014 9H152.114V8.9H152.014V9ZM152.014 11.64V11.74H152.114V11.64H152.014ZM147.534 11.64V11.54H147.434V11.64H147.534ZM147.534 23V23.1H147.634V23H147.534ZM144.294 23H144.194V23.1H144.294V23ZM144.294 11.54H139.814V11.74H144.294V11.54ZM139.914 11.64V9H139.714V11.64H139.914ZM139.814 9.1H152.014V8.9H139.814V9.1ZM151.914 9V11.64H152.114V9H151.914ZM152.014 11.54H147.534V11.74H152.014V11.54ZM147.434 11.64V23H147.634V11.64H147.434ZM147.534 22.9H144.294V23.1H147.534V22.9ZM144.394 23V11.64H144.194V23H144.394ZM162.275 20L162.367 19.9618L162.341 19.9H162.275V20ZM155.775 20V19.9H155.708L155.682 19.9618L155.775 20ZM154.535 23V23.1H154.601L154.627 23.0382L154.535 23ZM151.215 23L151.123 22.9593L151.06 23.1H151.215V23ZM157.455 9V8.9H157.39L157.363 8.95929L157.455 9ZM160.655 9L160.746 8.95918L160.719 8.9H160.655V9ZM166.915 23V23.1H167.069L167.006 22.9592L166.915 23ZM163.515 23L163.422 23.0382L163.448 23.1H163.515V23ZM161.255 17.54V17.64H161.404L161.347 17.5017L161.255 17.54ZM159.035 12.18L159.127 12.1417L159.035 11.9187L158.942 12.1417L159.035 12.18ZM156.815 17.54L156.722 17.5017L156.665 17.64H156.815V17.54ZM162.275 19.9H155.775V20.1H162.275V19.9ZM155.682 19.9618L154.442 22.9618L154.627 23.0382L155.867 20.0382L155.682 19.9618ZM154.535 22.9H151.215V23.1H154.535V22.9ZM151.306 23.0407L157.546 9.04071L157.363 8.95929L151.123 22.9593L151.306 23.0407ZM157.455 9.1H160.655V8.9H157.455V9.1ZM160.563 9.04082L166.823 23.0408L167.006 22.9592L160.746 8.95918L160.563 9.04082ZM166.915 22.9H163.515V23.1H166.915V22.9ZM163.607 22.9618L162.367 19.9618L162.182 20.0382L163.422 23.0382L163.607 22.9618ZM161.347 17.5017L159.127 12.1417L158.942 12.2183L161.162 17.5783L161.347 17.5017ZM158.942 12.1417L156.722 17.5017L156.907 17.5783L159.127 12.2183L158.942 12.1417ZM156.815 17.64H161.255V17.44H156.815V17.64ZM173.467 17.5L173.545 17.4368L173.473 17.3492L173.395 17.4308L173.467 17.5ZM171.587 19.46L171.515 19.3908L171.487 19.4198V19.46H171.587ZM171.587 23V23.1H171.687V23H171.587ZM168.367 23H168.267V23.1H168.367V23ZM168.367 9V8.9H168.267V9H168.367ZM171.587 9H171.687V8.9H171.587V9ZM171.587 15.54H171.487V15.7908L171.66 15.6088L171.587 15.54ZM177.787 9V8.9H177.744L177.714 8.9312L177.787 9ZM181.387 9L181.46 9.06808L181.617 8.9H181.387V9ZM175.587 15.24L175.514 15.1719L175.455 15.2348L175.509 15.302L175.587 15.24ZM181.727 23V23.1H181.934L181.805 22.938L181.727 23ZM177.947 23L177.869 23.0632L177.9 23.1H177.947V23ZM173.395 17.4308L171.515 19.3908L171.659 19.5292L173.539 17.5692L173.395 17.4308ZM171.487 19.46V23H171.687V19.46H171.487ZM171.587 22.9H168.367V23.1H171.587V22.9ZM168.467 23V9H168.267V23H168.467ZM168.367 9.1H171.587V8.9H168.367V9.1ZM171.487 9V15.54H171.687V9H171.487ZM171.66 15.6088L177.86 9.0688L177.714 8.9312L171.514 15.4712L171.66 15.6088ZM177.787 9.1H181.387V8.9H177.787V9.1ZM181.314 8.93192L175.514 15.1719L175.66 15.3081L181.46 9.06808L181.314 8.93192ZM175.509 15.302L181.649 23.062L181.805 22.938L175.665 15.1779L175.509 15.302ZM181.727 22.9H177.947V23.1H181.727V22.9ZM178.025 22.9368L173.545 17.4368L173.389 17.5632L177.869 23.0632L178.025 22.9368ZM183.172 9V8.9H183.072V9H183.172ZM186.412 9H186.512V8.9H186.412V9ZM186.412 23V23.1H186.512V23H186.412ZM183.172 23H183.072V23.1H183.172V23ZM183.172 9.1H186.412V8.9H183.172V9.1ZM186.312 9V23H186.512V9H186.312ZM186.412 22.9H183.172V23.1H186.412V22.9ZM183.272 23V9H183.072V23H183.272ZM191.274 21.58L191.204 21.6507L191.204 21.6511L191.274 21.58ZM189.614 9V8.9H189.514V9H189.614ZM192.854 9H192.954V8.9H192.854V9ZM198.294 19.58L198.369 19.6464L198.37 19.6456L198.294 19.58ZM199.094 9V8.9H198.994V9H199.094ZM202.294 9H202.394V8.9H202.294V9ZM200.614 21.58L200.544 21.5089L200.544 21.5093L200.614 21.58ZM195.954 23.14C193.973 23.14 192.441 22.5924 191.345 21.5089L191.204 21.6511C192.347 22.7809 193.935 23.34 195.954 23.34V23.14ZM191.345 21.5093C190.262 20.4267 189.714 18.8754 189.714 16.84H189.514C189.514 18.9113 190.073 20.52 191.204 21.6507L191.345 21.5093ZM189.714 16.84V9H189.514V16.84H189.714ZM189.614 9.1H192.854V8.9H189.614V9.1ZM192.754 9V16.72H192.954V9H192.754ZM192.754 16.72C192.754 17.9847 193.016 18.9518 193.557 19.6039C194.101 20.2595 194.913 20.58 195.974 20.58V20.38C194.955 20.38 194.207 20.0738 193.711 19.4761C193.212 18.8749 192.954 17.962 192.954 16.72H192.754ZM195.974 20.58C197.008 20.58 197.812 20.2731 198.369 19.6464L198.219 19.5136C197.71 20.0869 196.967 20.38 195.974 20.38V20.58ZM198.37 19.6456C198.926 19.006 199.194 18.024 199.194 16.72H198.994C198.994 18.0027 198.729 18.9273 198.219 19.5144L198.37 19.6456ZM199.194 16.72V9H198.994V16.72H199.194ZM199.094 9.1H202.294V8.9H199.094V9.1ZM202.194 9V16.84H202.394V9H202.194ZM202.194 16.84C202.194 18.8751 201.64 20.4262 200.544 21.5089L200.685 21.6511C201.829 20.5205 202.394 18.9116 202.394 16.84H202.194ZM200.544 21.5093C199.46 22.5924 197.935 23.14 195.954 23.14V23.34C197.973 23.34 199.555 22.781 200.685 21.6507L200.544 21.5093Z" fill="#455076"/>
<path d="M90.7371 28.8L82.8591 47H78.6991L70.8471 28.8H75.3971L80.9351 41.8L86.5511 28.8H90.7371ZM103.633 43.1H95.1833L93.5713 47H89.2553L97.3673 28.8H101.527L109.665 47H105.245L103.633 43.1ZM102.307 39.902L99.4213 32.934L96.5353 39.902H102.307ZM111.554 28.8H115.766V43.568H124.892V47H111.554V28.8ZM134.102 40.552V47H129.89V40.5L122.844 28.8H127.316L132.178 36.886L137.04 28.8H141.174L134.102 40.552ZM159.321 47L159.295 36.08L153.939 45.076H152.041L146.711 36.314V47H142.759V28.8H146.243L153.055 40.11L159.763 28.8H163.221L163.273 47H159.321ZM179.577 43.1H171.127L169.515 47H165.199L173.311 28.8H177.471L185.609 47H181.189L179.577 43.1ZM178.251 39.902L175.365 32.934L172.479 39.902H178.251ZM193.477 47.312C192.038 47.312 190.643 47.1213 189.291 46.74C187.956 46.3413 186.882 45.83 186.067 45.206L187.497 42.034C188.277 42.606 189.204 43.0653 190.279 43.412C191.354 43.7587 192.428 43.932 193.503 43.932C194.699 43.932 195.583 43.7587 196.155 43.412C196.727 43.048 197.013 42.5713 197.013 41.982C197.013 41.5487 196.84 41.1933 196.493 40.916C196.164 40.6213 195.73 40.3873 195.193 40.214C194.673 40.0407 193.962 39.85 193.061 39.642C191.674 39.3127 190.539 38.9833 189.655 38.654C188.771 38.3247 188.008 37.796 187.367 37.068C186.743 36.34 186.431 35.3693 186.431 34.156C186.431 33.0987 186.717 32.1453 187.289 31.296C187.861 30.4293 188.719 29.7447 189.863 29.242C191.024 28.7393 192.437 28.488 194.101 28.488C195.262 28.488 196.398 28.6267 197.507 28.904C198.616 29.1813 199.587 29.58 200.419 30.1L199.119 33.298C197.438 32.3447 195.756 31.868 194.075 31.868C192.896 31.868 192.021 32.0587 191.449 32.44C190.894 32.8213 190.617 33.324 190.617 33.948C190.617 34.572 190.938 35.04 191.579 35.352C192.238 35.6467 193.234 35.9413 194.569 36.236C195.956 36.5653 197.091 36.8947 197.975 37.224C198.859 37.5533 199.613 38.0733 200.237 38.784C200.878 39.4947 201.199 40.4567 201.199 41.67C201.199 42.71 200.904 43.6633 200.315 44.53C199.743 45.3793 198.876 46.0553 197.715 46.558C196.554 47.0607 195.141 47.312 193.477 47.312Z" fill="#455076"/>
<path d="M90.7371 28.8L90.8288 28.8397L90.8893 28.7H90.7371V28.8ZM82.8591 47V47.1H82.9247L82.9508 47.0397L82.8591 47ZM78.6991 47L78.6072 47.0396L78.6333 47.1H78.6991V47ZM70.8471 28.8V28.7H70.695L70.7552 28.8396L70.8471 28.8ZM75.3971 28.8L75.4891 28.7608L75.4632 28.7H75.3971V28.8ZM80.9351 41.8L80.8431 41.8392L80.9344 42.0536L81.0269 41.8397L80.9351 41.8ZM86.5511 28.8V28.7H86.4853L86.4593 28.7603L86.5511 28.8ZM90.6453 28.7603L82.7673 46.9603L82.9508 47.0397L90.8288 28.8397L90.6453 28.7603ZM82.8591 46.9H78.6991V47.1H82.8591V46.9ZM78.7909 46.9604L70.9389 28.7604L70.7552 28.8396L78.6072 47.0396L78.7909 46.9604ZM70.8471 28.9H75.3971V28.7H70.8471V28.9ZM75.3051 28.8392L80.8431 41.8392L81.0271 41.7608L75.4891 28.7608L75.3051 28.8392ZM81.0269 41.8397L86.6429 28.8397L86.4593 28.7603L80.8433 41.7603L81.0269 41.8397ZM86.5511 28.9H90.7371V28.7H86.5511V28.9ZM103.633 43.1L103.726 43.0618L103.7 43H103.633V43.1ZM95.1833 43.1V43H95.1164L95.0908 43.0618L95.1833 43.1ZM93.5713 47V47.1H93.6381L93.6637 47.0382L93.5713 47ZM89.2553 47L89.1639 46.9593L89.1012 47.1H89.2553V47ZM97.3673 28.8V28.7H97.3023L97.2759 28.7593L97.3673 28.8ZM101.527 28.8L101.619 28.7592L101.592 28.7H101.527V28.8ZM109.665 47V47.1H109.82L109.757 46.9592L109.665 47ZM105.245 47L105.153 47.0382L105.178 47.1H105.245V47ZM102.307 39.902V40.002H102.457L102.4 39.8637L102.307 39.902ZM99.4213 32.934L99.5136 32.8957L99.4213 32.6727L99.3289 32.8957L99.4213 32.934ZM96.5353 39.902L96.4429 39.8637L96.3856 40.002H96.5353V39.902ZM103.633 43H95.1833V43.2H103.633V43ZM95.0908 43.0618L93.4788 46.9618L93.6637 47.0382L95.2757 43.1382L95.0908 43.0618ZM93.5713 46.9H89.2553V47.1H93.5713V46.9ZM89.3466 47.0407L97.4586 28.8407L97.2759 28.7593L89.1639 46.9593L89.3466 47.0407ZM97.3673 28.9H101.527V28.7H97.3673V28.9ZM101.436 28.8408L109.574 47.0408L109.757 46.9592L101.619 28.7592L101.436 28.8408ZM109.665 46.9H105.245V47.1H109.665V46.9ZM105.338 46.9618L103.726 43.0618L103.541 43.1382L105.153 47.0382L105.338 46.9618ZM102.4 39.8637L99.5136 32.8957L99.3289 32.9723L102.215 39.9403L102.4 39.8637ZM99.3289 32.8957L96.4429 39.8637L96.6276 39.9403L99.5136 32.9723L99.3289 32.8957ZM96.5353 40.002H102.307V39.802H96.5353V40.002ZM111.554 28.8V28.7H111.454V28.8H111.554ZM115.766 28.8H115.866V28.7H115.766V28.8ZM115.766 43.568H115.666V43.668H115.766V43.568ZM124.892 43.568H124.992V43.468H124.892V43.568ZM124.892 47V47.1H124.992V47H124.892ZM111.554 47H111.454V47.1H111.554V47ZM111.554 28.9H115.766V28.7H111.554V28.9ZM115.666 28.8V43.568H115.866V28.8H115.666ZM115.766 43.668H124.892V43.468H115.766V43.668ZM124.792 43.568V47H124.992V43.568H124.792ZM124.892 46.9H111.554V47.1H124.892V46.9ZM111.654 47V28.8H111.454V47H111.654ZM134.102 40.552L134.016 40.5004L134.002 40.5242V40.552H134.102ZM134.102 47V47.1H134.202V47H134.102ZM129.89 47H129.79V47.1H129.89V47ZM129.89 40.5H129.99V40.4722L129.976 40.4484L129.89 40.5ZM122.844 28.8V28.7H122.667L122.758 28.8516L122.844 28.8ZM127.316 28.8L127.402 28.7485L127.373 28.7H127.316V28.8ZM132.178 36.886L132.092 36.9375L132.178 37.0801L132.264 36.9375L132.178 36.886ZM137.04 28.8V28.7H136.983L136.954 28.7485L137.04 28.8ZM141.174 28.8L141.26 28.8516L141.351 28.7H141.174V28.8ZM134.002 40.552V47H134.202V40.552H134.002ZM134.102 46.9H129.89V47.1H134.102V46.9ZM129.99 47V40.5H129.79V47H129.99ZM129.976 40.4484L122.93 28.7484L122.758 28.8516L129.804 40.5516L129.976 40.4484ZM122.844 28.9H127.316V28.7H122.844V28.9ZM127.23 28.8515L132.092 36.9375L132.264 36.8345L127.402 28.7485L127.23 28.8515ZM132.264 36.9375L137.126 28.8515L136.954 28.7485L132.092 36.8345L132.264 36.9375ZM137.04 28.9H141.174V28.7H137.04V28.9ZM141.088 28.7484L134.016 40.5004L134.188 40.6036L141.26 28.8516L141.088 28.7484ZM159.321 47L159.221 47.0002L159.221 47.1H159.321V47ZM159.295 36.08L159.395 36.0798L159.394 35.718L159.209 36.0288L159.295 36.08ZM153.939 45.076V45.176H153.995L154.025 45.1272L153.939 45.076ZM152.041 45.076L151.955 45.128L151.984 45.176H152.041V45.076ZM146.711 36.314L146.796 36.262L146.611 35.9572V36.314H146.711ZM146.711 47V47.1H146.811V47H146.711ZM142.759 47H142.659V47.1H142.759V47ZM142.759 28.8V28.7H142.659V28.8H142.759ZM146.243 28.8L146.328 28.7484L146.299 28.7H146.243V28.8ZM153.055 40.11L152.969 40.1616L153.055 40.3049L153.141 40.161L153.055 40.11ZM159.763 28.8V28.7H159.706L159.677 28.749L159.763 28.8ZM163.221 28.8L163.321 28.7997L163.32 28.7H163.221V28.8ZM163.273 47V47.1H163.373L163.373 46.9997L163.273 47ZM159.421 46.9998L159.395 36.0798L159.195 36.0802L159.221 47.0002L159.421 46.9998ZM159.209 36.0288L153.853 45.0248L154.025 45.1272L159.381 36.1312L159.209 36.0288ZM153.939 44.976H152.041V45.176H153.939V44.976ZM152.126 45.024L146.796 36.262L146.625 36.366L151.955 45.128L152.126 45.024ZM146.611 36.314V47H146.811V36.314H146.611ZM146.711 46.9H142.759V47.1H146.711V46.9ZM142.859 47V28.8H142.659V47H142.859ZM142.759 28.9H146.243V28.7H142.759V28.9ZM146.157 28.8516L152.969 40.1616L153.14 40.0584L146.328 28.7484L146.157 28.8516ZM153.141 40.161L159.849 28.851L159.677 28.749L152.969 40.059L153.141 40.161ZM159.763 28.9H163.221V28.7H159.763V28.9ZM163.121 28.8003L163.173 47.0003L163.373 46.9997L163.321 28.7997L163.121 28.8003ZM163.273 46.9H159.321V47.1H163.273V46.9ZM179.577 43.1L179.669 43.0618L179.643 43H179.577V43.1ZM171.127 43.1V43H171.06L171.034 43.0618L171.127 43.1ZM169.515 47V47.1H169.581L169.607 47.0382L169.515 47ZM165.199 47L165.107 46.9593L165.045 47.1H165.199V47ZM173.311 28.8V28.7H173.246L173.219 28.7593L173.311 28.8ZM177.471 28.8L177.562 28.7592L177.535 28.7H177.471V28.8ZM185.609 47V47.1H185.763L185.7 46.9592L185.609 47ZM181.189 47L181.096 47.0382L181.122 47.1H181.189V47ZM178.251 39.902V40.002H178.4L178.343 39.8637L178.251 39.902ZM175.365 32.934L175.457 32.8957L175.365 32.6727L175.272 32.8957L175.365 32.934ZM172.479 39.902L172.386 39.8637L172.329 40.002H172.479V39.902ZM179.577 43H171.127V43.2H179.577V43ZM171.034 43.0618L169.422 46.9618L169.607 47.0382L171.219 43.1382L171.034 43.0618ZM169.515 46.9H165.199V47.1H169.515V46.9ZM165.29 47.0407L173.402 28.8407L173.219 28.7593L165.107 46.9593L165.29 47.0407ZM173.311 28.9H177.471V28.7H173.311V28.9ZM177.379 28.8408L185.517 47.0408L185.7 46.9592L177.562 28.7592L177.379 28.8408ZM185.609 46.9H181.189V47.1H185.609V46.9ZM181.281 46.9618L179.669 43.0618L179.484 43.1382L181.096 47.0382L181.281 46.9618ZM178.343 39.8637L175.457 32.8957L175.272 32.9723L178.158 39.9403L178.343 39.8637ZM175.272 32.8957L172.386 39.8637L172.571 39.9403L175.457 32.9723L175.272 32.8957ZM172.479 40.002H178.251V39.802H172.479V40.002ZM189.291 46.74L189.262 46.8358L189.264 46.8362L189.291 46.74ZM186.067 45.206L185.976 45.1649L185.943 45.2372L186.006 45.2854L186.067 45.206ZM187.497 42.034L187.556 41.9534L187.456 41.8803L187.406 41.9929L187.497 42.034ZM190.279 43.412L190.31 43.3168L190.279 43.412ZM196.155 43.412L196.207 43.4975L196.209 43.4964L196.155 43.412ZM196.493 40.916L196.426 40.9906L196.43 40.9941L196.493 40.916ZM195.193 40.214L195.161 40.3089L195.162 40.3092L195.193 40.214ZM193.061 39.642L193.038 39.7393L193.038 39.7394L193.061 39.642ZM189.655 38.654L189.69 38.5603L189.655 38.654ZM187.367 37.068L187.291 37.1331L187.292 37.1341L187.367 37.068ZM187.289 31.296L187.372 31.3519L187.372 31.3511L187.289 31.296ZM189.863 29.242L189.823 29.1502L189.823 29.1504L189.863 29.242ZM197.507 28.904L197.531 28.807L197.507 28.904ZM200.419 30.1L200.512 30.1377L200.543 30.0598L200.472 30.0152L200.419 30.1ZM199.119 33.298L199.07 33.385L199.169 33.4412L199.212 33.3357L199.119 33.298ZM191.449 32.44L191.393 32.3568L191.392 32.3576L191.449 32.44ZM191.579 35.352L191.535 35.442L191.538 35.4433L191.579 35.352ZM194.569 36.236L194.592 36.1387L194.59 36.1384L194.569 36.236ZM197.975 37.224L198.01 37.1303L197.975 37.224ZM200.237 38.784L200.162 38.85L200.163 38.851L200.237 38.784ZM200.315 44.53L200.232 44.4738L200.232 44.4741L200.315 44.53ZM197.715 46.558L197.675 46.4662L197.715 46.558ZM193.477 47.212C192.047 47.212 190.661 47.0225 189.318 46.6438L189.264 46.8362C190.625 47.2201 192.029 47.412 193.477 47.412V47.212ZM189.319 46.6442C187.993 46.2478 186.93 45.7411 186.128 45.1266L186.006 45.2854C186.833 45.9189 187.92 46.4348 189.262 46.8358L189.319 46.6442ZM186.158 45.2471L187.588 42.0751L187.406 41.9929L185.976 45.1649L186.158 45.2471ZM187.438 42.1146C188.228 42.6939 189.165 43.1578 190.248 43.5072L190.31 43.3168C189.243 42.9729 188.326 42.5181 187.556 41.9534L187.438 42.1146ZM190.248 43.5072C191.332 43.8569 192.417 44.032 193.503 44.032V43.832C192.439 43.832 191.375 43.6605 190.31 43.3168L190.248 43.5072ZM193.503 44.032C194.705 44.032 195.611 43.8585 196.207 43.4975L196.103 43.3265C195.555 43.6588 194.693 43.832 193.503 43.832V44.032ZM196.209 43.4964C196.804 43.1173 197.113 42.6112 197.113 41.982H196.913C196.913 42.5315 196.649 42.9787 196.101 43.3276L196.209 43.4964ZM197.113 41.982C197.113 41.5174 196.925 41.1337 196.555 40.8379L196.43 40.9941C196.754 41.253 196.913 41.5799 196.913 41.982H197.113ZM196.56 40.8415C196.217 40.5353 195.771 40.2953 195.224 40.1188L195.162 40.3092C195.69 40.4794 196.11 40.7074 196.426 40.9905L196.56 40.8415ZM195.224 40.1191C194.7 39.9443 193.986 39.7529 193.083 39.5446L193.038 39.7394C193.938 39.9471 194.646 40.137 195.161 40.3089L195.224 40.1191ZM193.084 39.5447C191.7 39.2159 190.569 38.8877 189.69 38.5603L189.62 38.7477C190.509 39.079 191.649 39.4094 193.038 39.7393L193.084 39.5447ZM189.69 38.5603C188.822 38.2369 188.073 37.7179 187.442 37.0019L187.292 37.1341C187.944 37.8741 188.72 38.4125 189.62 38.7477L189.69 38.5603ZM187.443 37.0029C186.838 36.2974 186.531 35.352 186.531 34.156H186.331C186.331 35.3867 186.648 36.3826 187.291 37.1331L187.443 37.0029ZM186.531 34.156C186.531 33.1179 186.811 32.1841 187.372 31.3519L187.206 31.2401C186.622 32.1065 186.331 33.0795 186.331 34.156H186.531ZM187.372 31.3511C187.932 30.5035 188.773 29.8301 189.903 29.3336L189.823 29.1504C188.665 29.6593 187.79 30.3552 187.205 31.2409L187.372 31.3511ZM189.903 29.3338C191.048 28.838 192.446 28.588 194.101 28.588V28.388C192.427 28.388 191 28.6407 189.823 29.1502L189.903 29.3338ZM194.101 28.588C195.254 28.588 196.381 28.7257 197.483 29.001L197.531 28.807C196.414 28.5276 195.27 28.388 194.101 28.388V28.588ZM197.483 29.001C198.583 29.2762 199.544 29.6712 200.366 30.1848L200.472 30.0152C199.63 29.4888 198.649 29.0864 197.531 28.807L197.483 29.001ZM200.326 30.0623L199.026 33.2603L199.212 33.3357L200.512 30.1377L200.326 30.0623ZM199.168 33.211C197.474 32.2504 195.776 31.768 194.075 31.768V31.968C195.736 31.968 197.401 32.4389 199.07 33.385L199.168 33.211ZM194.075 31.768C192.889 31.768 191.99 31.9592 191.393 32.3568L191.504 32.5232C192.052 32.1582 192.903 31.968 194.075 31.968V31.768ZM191.392 32.3576C190.813 32.7559 190.517 33.2881 190.517 33.948H190.717C190.717 33.3599 190.975 32.8868 191.506 32.5224L191.392 32.3576ZM190.517 33.948C190.517 34.2781 190.602 34.5712 190.775 34.8235C190.947 35.0751 191.203 35.2803 191.535 35.4419L191.623 35.2621C191.314 35.1117 191.088 34.9269 190.94 34.7105C190.792 34.4948 190.717 34.2419 190.717 33.948H190.517ZM191.538 35.4433C192.206 35.7422 193.211 36.0386 194.547 36.3336L194.59 36.1384C193.258 35.8441 192.269 35.5512 191.62 35.2607L191.538 35.4433ZM194.546 36.3333C195.93 36.6621 197.061 36.9903 197.94 37.3177L198.01 37.1303C197.121 36.799 195.981 36.4686 194.592 36.1387L194.546 36.3333ZM197.94 37.3177C198.808 37.6413 199.549 38.1517 200.162 38.85L200.312 38.718C199.677 37.995 198.909 37.4654 198.01 37.1303L197.94 37.3177ZM200.163 38.851C200.783 39.5388 201.099 40.4746 201.099 41.67H201.299C201.299 40.4388 200.973 39.4506 200.311 38.717L200.163 38.851ZM201.099 41.67C201.099 42.6898 200.81 43.6235 200.232 44.4738L200.398 44.5862C200.998 43.7031 201.299 42.7302 201.299 41.67H201.099ZM200.232 44.4741C199.673 45.3042 198.823 45.9694 197.675 46.4662L197.755 46.6498C198.929 46.1413 199.813 45.4544 200.398 44.5859L200.232 44.4741ZM197.675 46.4662C196.53 46.962 195.131 47.212 193.477 47.212V47.412C195.15 47.412 196.577 47.1593 197.755 46.6498L197.675 46.4662Z" fill="#455076"/>
<path d="M14.3107 10.2812C19.4791 6.1135 26.2648 5.04914 32.8249 6.73811C36.4141 7.53461 39.9497 9.27864 43.0437 11.8952C43.7546 12.463 44.4467 13.0715 45.1167 13.7169C45.9422 13.3975 46.9274 12.0136 47.8073 11.5288C38.7694 1.42417 24.451 0.0814585 15.3096 7.44905C12.0237 10.0999 9.82527 13.653 8.72153 17.6342C9.95954 14.8034 11.8235 12.2811 14.3107 10.2812Z" fill="#214580"/>
<path d="M21.1886 35.2276C26.7564 21.7444 23.9192 17.6136 32.4825 10.7785C32.4825 10.7785 20.0827 13.2866 17.1744 29.8811C14.9319 42.7032 6.07229 46.156 6.07229 46.156C6.07229 46.156 16.3195 47.0167 21.1886 35.2276Z" fill="#2DB7F1"/>
<path d="M33.8954 32.2176C40.7323 7.31891 59.176 9.58163 59.176 9.58163C59.176 9.58163 35.7844 -1.08038 29.5359 25.3439C23.9411 49.0193 10.0548 51.3739 10.0548 51.3739C10.0548 51.3739 28.6993 51.1341 33.8954 32.2176Z" fill="#2DB7F1"/>
<path d="M38.7415 33.2672C36.479 43.3588 28.9354 46.3249 28.9354 46.3249C28.9354 46.3249 38.0634 46.912 41.9399 37.5201C46.3647 26.7853 47.4758 20.1481 54.0404 14.467C54.0404 14.467 42.5587 16.216 38.7415 33.2672Z" fill="#2DB7F1"/>
<path d="M32.1661 26.5344C36.8614 6.67697 51.2406 7.76572 58.0924 9.52975C58.7848 9.53483 59.176 9.58162 59.176 9.58162C59.176 9.58162 35.7844 -1.08038 29.5359 25.3439C23.9411 49.0193 10.0548 51.3739 10.0548 51.3739C10.0548 51.3739 14.3733 51.3118 19.4367 49.1465C23.7817 45.7842 29.1632 39.226 32.1661 26.5344Z" fill="#27AAE1"/>
<path d="M19.8045 31.0716C21.1172 23.5675 24.3715 18.9527 27.544 16.1357C28.5887 14.3835 30.0912 12.689 32.4825 10.7785C32.4825 10.7785 20.0827 13.2866 17.1744 29.8811C14.9319 42.7032 6.07229 46.156 6.07229 46.156C6.07229 46.156 9.08062 46.4026 12.6093 44.7642C15.2837 42.4028 18.5616 38.1798 19.8045 31.0716Z" fill="#27AAE1"/>
<path d="M35.7638 44.6296C37.899 42.6158 40.2677 39.3887 41.3685 34.4537C43.1739 26.3828 46.6988 21.7442 49.9134 19.0926C51.0276 17.4516 52.3502 15.9265 54.0404 14.467C54.0404 14.467 42.5587 16.216 38.7415 33.2672C36.479 43.3588 28.9354 46.3249 28.9354 46.3249C28.9354 46.3249 32.2692 46.5361 35.7638 44.6296Z" fill="#27AAE1"/>
<path d="M14.2887 13.6353C7.97874 19.8445 6.81796 29.5437 10.4878 38.2838L12.2133 34.3643C11.9127 33.2312 11.6922 32.0855 11.5743 30.9476C10.6499 24.2427 12.4879 17.6216 17.222 12.9667C19.4971 10.7255 22.2202 9.16586 25.1727 8.26363C21.0861 8.89771 17.2992 10.6719 14.2887 13.6353Z" fill="#214580"/>
<path d="M47.7381 47.6915C51.9986 44.2556 54.4341 39.3003 55.0152 33.8759C53.9722 38.078 51.724 41.8505 48.2849 44.6238C44.3551 47.7892 39.4884 49.1619 34.5033 48.8968C30.1819 48.8586 25.7119 47.3863 21.7845 44.6205C19.9879 43.4507 18.2779 42.0512 16.7041 40.4275C15.9147 40.6796 15.1065 41.0045 14.327 41.4219L13.2307 42.3042C22.1867 53.4175 38.2394 55.3446 47.7381 47.6915Z" fill="url(#paint0_radial)"/>
<path d="M46.1522 42.9779C53.0929 37.4777 55.2869 27.9605 52.5814 18.8734L50.447 22.5871C50.6228 23.7492 50.7202 24.9098 50.7126 26.0517C50.9084 32.819 48.3753 39.2062 43.1694 43.3269C40.6666 45.3072 37.795 46.5684 34.7608 47.1509C38.8866 46.9604 42.8413 45.5975 46.1522 42.9779Z" fill="#214580"/>
</g>
<defs>
<radialGradient id="paint0_radial" cx="0" cy="0" r="1" gradientUnits="userSpaceOnUse" gradientTransform="translate(-36.6784 -30.3094) rotate(-38.8627) scale(59.3321 59.1819)">
<stop stop-color="#2198BF"/>
<stop offset="0.1276" stop-color="#218AB4"/>
<stop offset="0.5056" stop-color="#206498"/>
<stop offset="0.8098" stop-color="#204D86"/>
<stop offset="1" stop-color="#204480"/>
</radialGradient>
</defs>
</svg>
